<mxfile host="Electron" agent="Mozilla/5.0 (Windows NT 10.0; Win64; x64) AppleWebKit/537.36 (KHTML, like Gecko) draw.io/24.7.17 Chrome/128.0.6613.36 Electron/32.0.1 Safari/537.36" version="24.7.17">
  <diagram name="Page-1" id="P2bzlpWV9BQvfWMMdXGA">
    <mxGraphModel dx="2578" dy="1012" grid="1" gridSize="10" guides="1" tooltips="1" connect="1" arrows="1" fold="1" page="1" pageScale="1" pageWidth="850" pageHeight="1100" math="0" shadow="0">
      <root>
        <mxCell id="0" />
        <mxCell id="1" parent="0" />
        <mxCell id="ZbY5U2wuNLYE3oSprNOO-49" value="" style="rounded=1;whiteSpace=wrap;html=1;fillColor=none;dashed=1;" parent="1" vertex="1">
          <mxGeometry x="500" y="460" width="100" height="130" as="geometry" />
        </mxCell>
        <mxCell id="ZbY5U2wuNLYE3oSprNOO-40" value="" style="rounded=1;whiteSpace=wrap;html=1;fillColor=none;dashed=1;" parent="1" vertex="1">
          <mxGeometry x="-150" y="710" width="140" height="130" as="geometry" />
        </mxCell>
        <mxCell id="ZbY5U2wuNLYE3oSprNOO-45" value="" style="rounded=1;whiteSpace=wrap;html=1;fillColor=none;dashed=1;" parent="1" vertex="1">
          <mxGeometry x="-150" y="460" width="140" height="190" as="geometry" />
        </mxCell>
        <mxCell id="ZbY5U2wuNLYE3oSprNOO-47" style="edgeStyle=orthogonalEdgeStyle;rounded=0;orthogonalLoop=1;jettySize=auto;html=1;exitX=0;exitY=0.25;exitDx=0;exitDy=0;entryX=1;entryY=0.5;entryDx=0;entryDy=0;" parent="1" source="ZbY5U2wuNLYE3oSprNOO-29" target="ZbY5U2wuNLYE3oSprNOO-45" edge="1">
          <mxGeometry relative="1" as="geometry" />
        </mxCell>
        <mxCell id="ZbY5U2wuNLYE3oSprNOO-48" style="edgeStyle=orthogonalEdgeStyle;rounded=0;orthogonalLoop=1;jettySize=auto;html=1;exitX=0;exitY=0.75;exitDx=0;exitDy=0;entryX=1;entryY=0.5;entryDx=0;entryDy=0;" parent="1" source="ZbY5U2wuNLYE3oSprNOO-29" target="ZbY5U2wuNLYE3oSprNOO-40" edge="1">
          <mxGeometry relative="1" as="geometry" />
        </mxCell>
        <mxCell id="ZbY5U2wuNLYE3oSprNOO-53" style="edgeStyle=orthogonalEdgeStyle;rounded=0;orthogonalLoop=1;jettySize=auto;html=1;exitX=1;exitY=0.25;exitDx=0;exitDy=0;entryX=0;entryY=0.5;entryDx=0;entryDy=0;" parent="1" source="ZbY5U2wuNLYE3oSprNOO-29" target="ZbY5U2wuNLYE3oSprNOO-49" edge="1">
          <mxGeometry relative="1" as="geometry" />
        </mxCell>
        <mxCell id="ZbY5U2wuNLYE3oSprNOO-29" value="" style="rounded=1;whiteSpace=wrap;html=1;fillColor=none;dashed=1;" parent="1" vertex="1">
          <mxGeometry x="30" y="520" width="430" height="280" as="geometry" />
        </mxCell>
        <mxCell id="ZbY5U2wuNLYE3oSprNOO-52" style="edgeStyle=orthogonalEdgeStyle;rounded=0;orthogonalLoop=1;jettySize=auto;html=1;exitX=0;exitY=0.5;exitDx=0;exitDy=0;entryX=1;entryY=0.75;entryDx=0;entryDy=0;" parent="1" source="ZbY5U2wuNLYE3oSprNOO-31" target="ZbY5U2wuNLYE3oSprNOO-29" edge="1">
          <mxGeometry relative="1" as="geometry" />
        </mxCell>
        <mxCell id="ZbY5U2wuNLYE3oSprNOO-31" value="" style="rounded=1;whiteSpace=wrap;html=1;fillColor=none;dashed=1;" parent="1" vertex="1">
          <mxGeometry x="500" y="670" width="130" height="170" as="geometry" />
        </mxCell>
        <mxCell id="ZbY5U2wuNLYE3oSprNOO-23" value="" style="ellipse;whiteSpace=wrap;html=1;" parent="1" vertex="1">
          <mxGeometry x="539" y="790" width="50" height="10" as="geometry" />
        </mxCell>
        <mxCell id="ZbY5U2wuNLYE3oSprNOO-4" value="" style="rounded=1;whiteSpace=wrap;html=1;" parent="1" vertex="1">
          <mxGeometry x="330" y="560" width="90" height="200" as="geometry" />
        </mxCell>
        <mxCell id="ZbY5U2wuNLYE3oSprNOO-7" value="" style="rounded=1;whiteSpace=wrap;html=1;" parent="1" vertex="1">
          <mxGeometry x="340" y="570" width="70" height="20" as="geometry" />
        </mxCell>
        <mxCell id="ZbY5U2wuNLYE3oSprNOO-8" value="" style="ellipse;whiteSpace=wrap;html=1;aspect=fixed;" parent="1" vertex="1">
          <mxGeometry x="340" y="680" width="70" height="70" as="geometry" />
        </mxCell>
        <mxCell id="ZbY5U2wuNLYE3oSprNOO-9" value="" style="rounded=1;whiteSpace=wrap;html=1;" parent="1" vertex="1">
          <mxGeometry x="535" y="495" width="30" height="60" as="geometry" />
        </mxCell>
        <mxCell id="ZbY5U2wuNLYE3oSprNOO-10" value="" style="rounded=1;whiteSpace=wrap;html=1;" parent="1" vertex="1">
          <mxGeometry x="537.5" y="499" width="25" height="52" as="geometry" />
        </mxCell>
        <mxCell id="ZbY5U2wuNLYE3oSprNOO-15" value="" style="rounded=1;whiteSpace=wrap;html=1;" parent="1" vertex="1">
          <mxGeometry x="-120" y="490" width="80" height="130" as="geometry" />
        </mxCell>
        <mxCell id="ZbY5U2wuNLYE3oSprNOO-17" value="" style="ellipse;whiteSpace=wrap;html=1;aspect=fixed;" parent="1" vertex="1">
          <mxGeometry x="-110" y="500" width="40" height="40" as="geometry" />
        </mxCell>
        <mxCell id="ZbY5U2wuNLYE3oSprNOO-18" value="" style="ellipse;whiteSpace=wrap;html=1;aspect=fixed;" parent="1" vertex="1">
          <mxGeometry x="-110" y="550" width="60" height="60" as="geometry" />
        </mxCell>
        <mxCell id="ZbY5U2wuNLYE3oSprNOO-24" value="" style="ellipse;whiteSpace=wrap;html=1;" parent="1" vertex="1">
          <mxGeometry x="140" y="740" width="100" height="20" as="geometry" />
        </mxCell>
        <mxCell id="ZbY5U2wuNLYE3oSprNOO-25" value="" style="rounded=1;whiteSpace=wrap;html=1;" parent="1" vertex="1">
          <mxGeometry x="340" y="600" width="70" height="20" as="geometry" />
        </mxCell>
        <mxCell id="ZbY5U2wuNLYE3oSprNOO-26" value="" style="rounded=1;whiteSpace=wrap;html=1;" parent="1" vertex="1">
          <mxGeometry x="340" y="630" width="70" height="20" as="geometry" />
        </mxCell>
        <mxCell id="ZbY5U2wuNLYE3oSprNOO-30" value="System" style="text;html=1;align=left;verticalAlign=middle;whiteSpace=wrap;rounded=0;" parent="1" vertex="1">
          <mxGeometry x="70" y="520" width="350" height="40" as="geometry" />
        </mxCell>
        <mxCell id="ZbY5U2wuNLYE3oSprNOO-32" value="Microphone" style="text;html=1;align=left;verticalAlign=middle;whiteSpace=wrap;rounded=0;" parent="1" vertex="1">
          <mxGeometry x="530" y="670" width="70" height="30" as="geometry" />
        </mxCell>
        <mxCell id="ZbY5U2wuNLYE3oSprNOO-36" value="" style="shape=requiredInterface;html=1;verticalLabelPosition=bottom;sketch=0;direction=north;" parent="1" vertex="1">
          <mxGeometry x="-110" y="740" width="60" height="30" as="geometry" />
        </mxCell>
        <mxCell id="ZbY5U2wuNLYE3oSprNOO-37" value="" style="rounded=1;whiteSpace=wrap;html=1;" parent="1" vertex="1">
          <mxGeometry x="559" y="770" width="10" height="26" as="geometry" />
        </mxCell>
        <mxCell id="ZbY5U2wuNLYE3oSprNOO-19" value="" style="shape=cylinder3;whiteSpace=wrap;html=1;boundedLbl=1;backgroundOutline=1;size=6.523809523809547;" parent="1" vertex="1">
          <mxGeometry x="544" y="710" width="40" height="65" as="geometry" />
        </mxCell>
        <mxCell id="ZbY5U2wuNLYE3oSprNOO-38" value="" style="rounded=1;whiteSpace=wrap;html=1;" parent="1" vertex="1">
          <mxGeometry x="185" y="690" width="10" height="60" as="geometry" />
        </mxCell>
        <mxCell id="ZbY5U2wuNLYE3oSprNOO-1" value="" style="rounded=1;whiteSpace=wrap;html=1;" parent="1" vertex="1">
          <mxGeometry x="70" y="560" width="240" height="140" as="geometry" />
        </mxCell>
        <mxCell id="ZbY5U2wuNLYE3oSprNOO-6" value="" style="rounded=1;whiteSpace=wrap;html=1;" parent="1" vertex="1">
          <mxGeometry x="80" y="570" width="220" height="120" as="geometry" />
        </mxCell>
        <mxCell id="ZbY5U2wuNLYE3oSprNOO-39" value="" style="shape=xor;whiteSpace=wrap;html=1;flipH=1;" parent="1" vertex="1">
          <mxGeometry x="-120" y="765" width="20" height="45" as="geometry" />
        </mxCell>
        <mxCell id="ZbY5U2wuNLYE3oSprNOO-34" value="" style="shape=xor;whiteSpace=wrap;html=1;" parent="1" vertex="1">
          <mxGeometry x="-60" y="765" width="20" height="45" as="geometry" />
        </mxCell>
        <mxCell id="ZbY5U2wuNLYE3oSprNOO-41" value="Headphones" style="text;html=1;align=left;verticalAlign=middle;whiteSpace=wrap;rounded=0;" parent="1" vertex="1">
          <mxGeometry x="-130" y="710" width="90" height="30" as="geometry" />
        </mxCell>
        <mxCell id="ZbY5U2wuNLYE3oSprNOO-44" value="" style="ellipse;whiteSpace=wrap;html=1;aspect=fixed;" parent="1" vertex="1">
          <mxGeometry x="-60" y="500" width="10" height="10" as="geometry" />
        </mxCell>
        <mxCell id="ZbY5U2wuNLYE3oSprNOO-46" value="Speakers" style="text;html=1;align=left;verticalAlign=middle;whiteSpace=wrap;rounded=0;" parent="1" vertex="1">
          <mxGeometry x="-120" y="460" width="80" height="30" as="geometry" />
        </mxCell>
        <mxCell id="ZbY5U2wuNLYE3oSprNOO-51" value="Phone" style="text;html=1;align=left;verticalAlign=middle;whiteSpace=wrap;rounded=0;" parent="1" vertex="1">
          <mxGeometry x="530" y="460" width="40" height="30" as="geometry" />
        </mxCell>
      </root>
    </mxGraphModel>
  </diagram>
</mxfile>
